<?xml version="1.0" standalone="no"?>
<!DOCTYPE svg PUBLIC "-//W3C//DTD SVG 20010904//EN"
 "http://www.w3.org/TR/2001/REC-SVG-20010904/DTD/svg10.dtd">
<svg version="1.0" xmlns="http://www.w3.org/2000/svg"
 width="999.000000pt" height="319.000000pt" viewBox="0 0 999.000000 319.000000"
 preserveAspectRatio="xMidYMid meet">
<metadata>
Created by potrace 1.12, written by Peter Selinger 2001-2015
</metadata>
<g transform="translate(0.000000,319.000000) scale(0.100000,-0.100000)"
fill="#000000" stroke="none">
<path d="M0 1595 l0 -1595 4995 0 4995 0 0 1595 0 1595 -4995 0 -4995 0 0
-1595z m3940 1051 l0 -484 68 34 c103 51 171 66 325 71 320 12 553 -71 755
-269 213 -208 315 -491 299 -828 -22 -454 -198 -776 -518 -949 -158 -85 -266
-111 -489 -118 -155 -5 -185 -3 -263 16 -83 20 -198 67 -259 107 -15 10 -29
16 -31 14 -2 -3 -25 -35 -51 -72 l-48 -68 -144 0 -144 0 0 1459 0 1459 158 37
c86 20 189 45 227 55 39 10 80 19 93 19 l22 1 0 -484z m6020 -1016 l0 -1500
-250 0 -250 0 0 59 0 60 -52 -34 c-66 -44 -192 -89 -290 -105 -97 -16 -329 -8
-418 14 -451 110 -702 514 -677 1091 14 320 113 567 307 765 128 131 251 206
417 256 74 22 113 27 244 31 176 6 270 -8 397 -57 l72 -28 0 418 0 418 158 37
c86 20 189 45 227 55 39 10 80 19 93 19 l22 1 0 -1500z m-8666 611 c105 -28
209 -80 281 -141 l58 -49 51 45 c62 54 184 115 291 146 69 20 103 23 250 23
193 0 249 -11 375 -73 56 -27 96 -57 155 -117 91 -90 139 -175 177 -311 22
-78 22 -88 26 -851 l3 -773 -250 0 -250 0 -3 718 c-3 650 -5 722 -21 769 -29
85 -75 142 -148 182 -63 35 -66 36 -179 36 -108 0 -119 -2 -174 -30 -67 -34
-150 -104 -171 -146 -13 -24 -15 -140 -15 -779 l0 -750 -250 0 -250 0 -2 738
-3 737 -24 52 c-13 29 -44 72 -70 96 -67 63 -124 82 -246 82 -94 0 -104 -2
-170 -35 -42 -21 -95 -59 -132 -95 l-63 -61 0 -757 0 -757 -250 0 -250 0 0
1045 0 1045 173 0 173 0 48 -85 47 -86 55 50 c66 60 194 126 284 146 99 22
370 14 474 -14z m5746 -4 c115 -31 192 -65 279 -121 194 -126 328 -313 387
-541 34 -130 38 -314 10 -452 l-18 -93 -750 0 -750 0 6 -47 c33 -231 183 -396
411 -448 90 -21 277 -21 381 0 91 19 185 59 256 111 28 21 53 33 58 28 4 -5
50 -90 101 -188 105 -203 105 -177 -1 -240 -184 -109 -406 -152 -728 -143
-158 4 -202 9 -286 31 -377 98 -625 374 -697 776 -21 116 -18 404 5 515 47
227 131 384 288 543 129 131 276 219 441 267 103 30 148 34 332 31 156 -3 193
-7 275 -29z"/>
<path d="M4120 1836 c-66 -19 -90 -30 -137 -65 l-43 -31 0 -549 0 -549 33 -32
c67 -66 150 -93 287 -91 311 3 492 121 568 372 30 97 46 256 39 384 -18 316
-154 500 -414 559 -86 19 -268 20 -333 2z"/>
<path d="M8940 1827 c-151 -46 -253 -132 -319 -269 -62 -128 -75 -196 -75
-388 0 -123 4 -182 17 -234 68 -269 264 -415 565 -417 95 -1 180 21 259 67 79
46 73 -7 73 599 l0 544 -33 25 c-18 14 -64 40 -102 58 -66 31 -78 33 -190 35
-101 3 -132 -1 -195 -20z"/>
<path d="M6579 1836 c-127 -36 -232 -123 -294 -246 -26 -51 -65 -158 -65 -177
0 -2 230 -3 510 -3 l511 0 -7 38 c-39 213 -146 338 -331 386 -73 19 -257 20
-324 2z"/>
</g>
</svg>
